<?xml version="1.0" encoding="utf-8"?>
<!-- Generator: Adobe Illustrator 20.0.0, SVG Export Plug-In . SVG Version: 6.00 Build 0)  -->
<svg version="1.1" id="Layer_1" xmlns="http://www.w3.org/2000/svg" xmlns:xlink="http://www.w3.org/1999/xlink" x="0px" y="0px"
	 viewBox="0 0 64 42" style="enable-background:new 0 0 64 42;" xml:space="preserve">
<style type="text/css">
	.st0{fill:#008F3E;}
	.st1{fill:#F8C300;}
	.st2{fill:#28166F;}
	.st3{fill:#FFFFFF;}
</style>
<path id="Rounded_Rectangle_7_copy_1_" class="st0" d="M5.8,0h52.3C61.4,0,64,2.6,64,5.7v30.6c0,3.2-2.6,5.7-5.8,5.7H5.8
	C2.6,42,0,39.4,0,36.3V5.7C0,2.6,2.6,0,5.8,0z"/>
<path class="st1" d="M4,21L32,0l28,21L32,42L4,21z"/>
<ellipse class="st2" cx="32" cy="21" rx="13.9" ry="14"/>
<path class="st3" d="M44.5,28c0.4-0.8,0.7-1.7,0.9-2.6c-4.2-9.6-15.3-14-24.8-9.8c-0.4,0.2-0.8,0.4-1.2,0.6
	c-0.3,0.7-0.6,1.4-0.8,2.1c9.3-4.7,20.6-1,25.3,8.4C44.1,27.1,44.3,27.5,44.5,28z"/>
</svg>
